{"title":"The.Perfect.Guy.2015.HDCAM.XVID.AC3.Hive-CM8","uid":12515677,"size":1067686953,"categoryP":"video","categoryS":"movies","magnet":"?xt=urn:btih:24044cfc728850199a40912fa9e91fda7505c0a4&amp;dn=The.Perfect.Guy.2015.HDCAM.XVID.AC3.Hive-CM8&amp;tr=udp%3A%2F%2Ftracker.leechers-paradise.org%3A6969&amp;tr=udp%3A%2F%2Fzer0day.ch%3A1337&amp;tr=udp%3A%2F%2Fopen.demonii.com%3A1337&amp;tr=udp%3A%2F%2Ftracker.coppersurfer.tk%3A6969&amp;tr=udp%3A%2F%2Fexodus.desync.com%3A6969","seeders":12,"leechers":2,"uploader":"xxxlavalxxx","files":4,"time":1443763217,"description":"http://extraimago.com/image/hb9\r\n \nhttp://www.imdb.com/title/tt3862750/\r\n\r\n\r\nAfter breaking up with her boyfriend, a professional woman gets involved with a man who seems almost too good to be true.\r\n\r\nDirector: David M. Rosenthal\r\nWriters: Alan B. McElroy (story), Tyger Williams (screenplay)\r\nStars: Sanaa Lathan, Michael Ealy, Morris Chestnut\r\nGenres: Drama | Thriller\r\nCountry: USA\r\nLanguage: English\r\n\r\n\r\nThe.Perfect.Guy.2015.HDCAM.XVID.AC3.Hive-CM8\r\n\r\nThx Hive\r\n\r\nCM8 Doing It Right The First Time \r\n\r\nSources:\r\n\r\nVideo: 720p HDCAM from V\r\nAudio: HQMic from Paul\r\nthx guys\r\n\r\nNotes:\r\n\r\nthere are only 2 cams out for this movie, and it doesnt look like there will be coming any more. web-dl maybe in a month or later\r\nThe first cam i got was steady but way too dark,you couldnt see anything. But it had great audio.\r\nThe new cam is good and bright, with ok-ish audio. Only has slight cam moves up and down occasionally but they last only secs.\r\nwill do just fine\r\n\r\nEncode:\r\n\r\ntook the center of the cam,cropped black bars to highest and lowest point at top and bottom, so when cam moves a bit up and down you wont loose viewable video\r\nadded brightness and sharpness,fixed colouring best as possible\r\nbtw. video is complete but feel free to go thru it frame by frame to find out for yourself as some do\r\n\r\ntook the better cam-audio,cleaned it through and lipsynced it to my video\r\naudio is clear and fully understandable see sample\r\n\r\ngot nice\r\nwill do me till retail\r\nenjoy\r\n\r\nVideo: 720x288 @bitrate 1200 2pass\r\nAudio: English Mic AC3 2.0 Stereo\r\nSample: yes included\r\n\r\n\r\n \nhttp://www.imdb.com/title/tt3862750/\r\n\r\n\r\n\r\nGeneral\r\nComplete name                  : The.Perfect.Guy.2015.HDCAM.XVID.AC3.Hive-CM8.avi\r\nFormat                         : AVI\r\nFormat/Info                    : Audio Video Interleave\r\nFile size                      : 1 007 MiB\r\nDuration                       : 1h 35mn\r\nOverall bit rate               : 1 470 Kbps\r\nWriting application            : Nandub v1.0rc2\r\nWriting library                : Nandub build 1853/release\r\n\r\nVideo\r\nID                             : 0\r\nFormat                         : MPEG-4 Visual\r\nFormat profile                 : Advanced   \r\nFormat settings, BVOP          : 2\r\nFormat settings, QPel          : Yes\r\nFormat settings, GMC           : No warppoints\r\nFormat settings, Matrix        : Default (H.263)\r\nMuxing mode                    : Packed bitstream\r\nCodec ID                       : XVID\r\nCodec ID/Hint                  : XviD\r\nDuration                       : 1h 35mn\r\nBit rate                       : 1 203 Kbps\r\nWidth                          : 720 pixels\r\nHeight                         : 288 pixels\r\nDisplay aspect ratio           : 2.500\r\nFrame rate                     : 29.970 fps\r\nColor space                    : YUV\r\nChroma subsampling             : 4:2:0\r\nBit depth                      : 8 bits\r\nScan type                      : Progressive\r\nCompression mode               : Lossy\r\nBits/(Pixel*Frame)             : 0.193\r\nStream size                    : 823 MiB (82%)\r\nWriting library                : XviD 1.2.1 (UTC 2008-12-04)\r\n\r\nAudio\r\nID                             : 1\r\nFormat                         : AC-3\r\nFormat/Info                    : Audio Coding 3\r\nMode extension                 : CM (complete main)\r\nFormat settings, Endianness    : Big\r\nCodec ID                       : 2000\r\nDuration                       : 1h 35mn\r\nBit rate mode                  : Constant\r\nBit rate                       : 256 Kbps\r\nChannel(s)                     : 2 channels\r\nChannel positions              : Front: L R\r\nSampling rate                  : 48.0 KHz\r\nBit depth                      : 16 bits\r\nCompression mode               : Lossy\r\nStream size                    : 175 MiB (17%)\r\nAlignment                      : Split accross interleaves\r\nInterleave, duration           : 33 ms (1.00 video frame)\r\nInterleave, preload duration   : 500 ms\r\n\r\n\r\nGreetz\r\n\r\nSugarB,iNCOMiNG,Izzy,MenaceIISociety,jiinx,SiMPLE,CherryBomb\r\nranbailey,ViSiON,UnKnOwN,YanKeeS,COPYxRIGHT,THC,VAiN,ACAB,DRs\r\nLKRG,Kingstoner,ACAB,SiMPLE,TiTAN,cadance,PLAYNOW\r\nUnevano,BigVik,Rapeseed,SAFC,goldadvance,KaN1vE,Pinnz,Wayne,HiGH\r\nSeeN,jtr,Limey,ICONiK,TED,smittyman,rkofan,mrtoke09 (ya whinging old man here ya go lol )\r\nMr Hive\r\n\r\na special thanks to the office , toddy and megs for letting ted be shit faced and not kick him out haha\r\n\r\n\r\nLOOKING FOR ANYTHING YOU WANT TO LOOK AND SOUND BETTER\r\n\r\nCOME FIND US WE DONT BITE \r\n  \r\n\r\n \nhttp://extraimago.com/image/hbM \nhttp://extraimago.com/image/hbU \nhttp://extraimago.com/image/hbz \nhttp://extraimago.com/image/hb0","torrent":{"xt":"urn:btih:24044cfc728850199a40912fa9e91fda7505c0a4","amp;dn":"The.Perfect.Guy.2015.HDCAM.XVID.AC3.Hive-CM8","amp;tr":["udp%3A%2F%2Ftracker.leechers-paradise.org%3A6969","udp%3A%2F%2Fzer0day.ch%3A1337","udp%3A%2F%2Fopen.demonii.com%3A1337","udp%3A%2F%2Ftracker.coppersurfer.tk%3A6969","udp%3A%2F%2Fexodus.desync.com%3A6969"],"infoHash":"24044cfc728850199a40912fa9e91fda7505c0a4","infoHashBuffer":{"type":"Buffer","data":[36,4,76,252,114,136,80,25,154,64,145,47,169,233,31,218,117,5,192,164]},"announce":[],"urlList":[]}}